<svg width="249" height="69" viewBox="0 0 249 69" fill="none" xmlns="http://www.w3.org/2000/svg">
<path d="M42.9905 23.2307C44.7559 23.2307 46.2988 23.4245 47.6193 23.812C48.9397 24.1995 50.0018 24.6086 50.8056 25.0392C51.6093 25.4698 52.0973 25.7568 52.2695 25.9003L49.1694 31.0888C48.9397 30.9166 48.545 30.6654 47.9853 30.3353C47.4399 30.0052 46.7868 29.711 46.0261 29.4526C45.2798 29.1943 44.4976 29.0651 43.6795 29.0651C42.5743 29.0651 41.6773 29.266 40.9883 29.6679C40.3138 30.0554 39.9765 30.6367 39.9765 31.4118C39.9765 31.9428 40.1559 32.4236 40.5147 32.8542C40.8879 33.2704 41.4476 33.6723 42.194 34.0598C42.9546 34.433 43.9163 34.842 45.0788 35.287C46.1409 35.6745 47.1385 36.1338 48.0714 36.6648C49.0043 37.1959 49.8224 37.8274 50.5257 38.5594C51.2433 39.277 51.8102 40.1095 52.2265 41.0567C52.6427 42.004 52.8508 43.0805 52.8508 44.2861C52.8508 45.7214 52.5566 46.97 51.9681 48.0321C51.3797 49.0799 50.5759 49.9482 49.5569 50.6372C48.5522 51.3261 47.404 51.8356 46.1122 52.1657C44.8348 52.5102 43.5072 52.6824 42.1294 52.6824C40.1774 52.6824 38.4264 52.4599 36.8763 52.015C35.3406 51.5701 34.0991 51.0893 33.1518 50.5726C32.2045 50.0559 31.6376 49.7114 31.451 49.5392L34.6588 44.1354C34.831 44.2646 35.1612 44.4727 35.6491 44.7597C36.1515 45.0468 36.7615 45.3482 37.4791 45.664C38.1967 45.9654 38.9574 46.2237 39.7612 46.439C40.5793 46.6543 41.383 46.7619 42.1724 46.7619C43.4929 46.7619 44.4832 46.5108 45.1434 46.0084C45.8037 45.4917 46.1338 44.8171 46.1338 43.9847C46.1338 43.3675 45.9257 42.8149 45.5094 42.327C45.0932 41.839 44.4689 41.3797 43.6364 40.9491C42.8039 40.5042 41.7634 40.0377 40.5147 39.5497C39.266 39.0474 38.0963 38.4374 37.0055 37.7198C35.929 37.0021 35.0535 36.1051 34.3789 35.0286C33.7044 33.9522 33.3671 32.6174 33.3671 31.0242C33.3671 29.4311 33.812 28.0532 34.7019 26.8907C35.6061 25.7137 36.7902 24.8095 38.2542 24.178C39.7325 23.5465 41.3113 23.2307 42.9905 23.2307ZM74.7919 37.4829L85.5994 52.1657H77.9136L69.1728 39.7435V52.1657H62.7356V23.7474H69.1728V35.3731L77.2247 23.7474H84.4799L74.7919 37.4829ZM135.585 29.388H128.804V23.7474H148.783V29.388H142.023V52.1657H135.585V29.388ZM172.653 46.3098C173.973 46.3098 175.172 46.1161 176.248 45.7285C177.339 45.341 178.15 44.9607 178.681 44.5875L181.437 50.0559C180.762 50.63 179.607 51.2113 177.971 51.7997C176.349 52.3882 174.418 52.6824 172.179 52.6824C170.084 52.6824 168.118 52.3164 166.28 51.5844C164.443 50.8524 162.821 49.8262 161.415 48.5058C160.023 47.171 158.925 45.6137 158.121 43.834C157.331 42.0399 156.937 40.0951 156.937 37.9996C156.937 35.9041 157.331 33.9594 158.121 32.1653C158.91 30.3568 160.001 28.7852 161.393 27.4504C162.8 26.1156 164.422 25.0822 166.259 24.3502C168.11 23.6039 170.084 23.2307 172.179 23.2307C174.418 23.2307 176.349 23.525 177.971 24.1134C179.607 24.7019 180.762 25.2832 181.437 25.8573L178.681 31.3256C178.15 30.9381 177.339 30.5578 176.248 30.1846C175.172 29.7971 173.973 29.6033 172.653 29.6033C171.189 29.6033 169.912 29.833 168.821 30.2922C167.73 30.7372 166.819 31.3543 166.087 32.1437C165.355 32.9331 164.809 33.823 164.45 34.8133C164.092 35.8037 163.912 36.8442 163.912 37.935C163.912 39.0402 164.092 40.0951 164.45 41.0998C164.809 42.0901 165.355 42.98 166.087 43.7694C166.819 44.5588 167.73 45.1831 168.821 45.6424C169.912 46.0874 171.189 46.3098 172.653 46.3098ZM208.048 40.7338H198.231V52.1657H191.815V23.7474H198.231V35.1147H208.048V23.7474H214.442V52.1657H208.048V40.7338Z" fill="#373737"/>
<path d="M42.9905 23.2307C44.7559 23.2307 46.2988 23.4245 47.6193 23.812C48.9397 24.1995 50.0018 24.6086 50.8056 25.0392C51.6093 25.4698 52.0973 25.7568 52.2695 25.9003L49.1694 31.0888C48.9397 30.9166 48.545 30.6654 47.9853 30.3353C47.4399 30.0052 46.7868 29.711 46.0261 29.4526C45.2798 29.1943 44.4976 29.0651 43.6795 29.0651C42.5743 29.0651 41.6773 29.266 40.9883 29.6679C40.3138 30.0554 39.9765 30.6367 39.9765 31.4118C39.9765 31.9428 40.1559 32.4236 40.5147 32.8542C40.8879 33.2704 41.4476 33.6723 42.194 34.0598C42.9546 34.433 43.9163 34.842 45.0788 35.287C46.1409 35.6745 47.1385 36.1338 48.0714 36.6648C49.0043 37.1959 49.8224 37.8274 50.5257 38.5594C51.2433 39.277 51.8102 40.1095 52.2265 41.0567C52.6427 42.004 52.8508 43.0805 52.8508 44.2861C52.8508 45.7214 52.5566 46.97 51.9681 48.0321C51.3797 49.0799 50.5759 49.9482 49.5569 50.6372C48.5522 51.3261 47.404 51.8356 46.1122 52.1657C44.8348 52.5102 43.5072 52.6824 42.1294 52.6824C40.1774 52.6824 38.4264 52.4599 36.8763 52.015C35.3406 51.5701 34.0991 51.0893 33.1518 50.5726C32.2045 50.0559 31.6376 49.7114 31.451 49.5392L34.6588 44.1354C34.831 44.2646 35.1612 44.4727 35.6491 44.7597C36.1515 45.0468 36.7615 45.3482 37.4791 45.664C38.1967 45.9654 38.9574 46.2237 39.7612 46.439C40.5793 46.6543 41.383 46.7619 42.1724 46.7619C43.4929 46.7619 44.4832 46.5108 45.1434 46.0084C45.8037 45.4917 46.1338 44.8171 46.1338 43.9847C46.1338 43.3675 45.9257 42.8149 45.5094 42.327C45.0932 41.839 44.4689 41.3797 43.6364 40.9491C42.8039 40.5042 41.7634 40.0377 40.5147 39.5497C39.266 39.0474 38.0963 38.4374 37.0055 37.7198C35.929 37.0021 35.0535 36.1051 34.3789 35.0286C33.7044 33.9522 33.3671 32.6174 33.3671 31.0242C33.3671 29.4311 33.812 28.0532 34.7019 26.8907C35.6061 25.7137 36.7902 24.8095 38.2542 24.178C39.7325 23.5465 41.3113 23.2307 42.9905 23.2307ZM74.7919 37.4829L85.5994 52.1657H77.9136L69.1728 39.7435V52.1657H62.7356V23.7474H69.1728V35.3731L77.2247 23.7474H84.4799L74.7919 37.4829ZM135.585 29.388H128.804V23.7474H148.783V29.388H142.023V52.1657H135.585V29.388ZM172.653 46.3098C173.973 46.3098 175.172 46.1161 176.248 45.7285C177.339 45.341 178.15 44.9607 178.681 44.5875L181.437 50.0559C180.762 50.63 179.607 51.2113 177.971 51.7997C176.349 52.3882 174.418 52.6824 172.179 52.6824C170.084 52.6824 168.118 52.3164 166.28 51.5844C164.443 50.8524 162.821 49.8262 161.415 48.5058C160.023 47.171 158.925 45.6137 158.121 43.834C157.331 42.0399 156.937 40.0951 156.937 37.9996C156.937 35.9041 157.331 33.9594 158.121 32.1653C158.91 30.3568 160.001 28.7852 161.393 27.4504C162.8 26.1156 164.422 25.0822 166.259 24.3502C168.11 23.6039 170.084 23.2307 172.179 23.2307C174.418 23.2307 176.349 23.525 177.971 24.1134C179.607 24.7019 180.762 25.2832 181.437 25.8573L178.681 31.3256C178.15 30.9381 177.339 30.5578 176.248 30.1846C175.172 29.7971 173.973 29.6033 172.653 29.6033C171.189 29.6033 169.912 29.833 168.821 30.2922C167.73 30.7372 166.819 31.3543 166.087 32.1437C165.355 32.9331 164.809 33.823 164.45 34.8133C164.092 35.8037 163.912 36.8442 163.912 37.935C163.912 39.0402 164.092 40.0951 164.45 41.0998C164.809 42.0901 165.355 42.98 166.087 43.7694C166.819 44.5588 167.73 45.1831 168.821 45.6424C169.912 46.0874 171.189 46.3098 172.653 46.3098ZM208.048 40.7338H198.231V52.1657H191.815V23.7474H198.231V35.1147H208.048V23.7474H214.442V52.1657H208.048V40.7338Z" fill="black" fill-opacity="0.2"/>
<path d="M124.686 32.6953C125.602 33.1534 126.403 33.9933 127.091 35.2149C127.854 36.3602 128.274 37.5436 128.35 38.7652C128.427 39.9868 127.969 40.9794 126.976 41.7429C126.06 42.5064 124.571 43.4226 122.51 44.4915C120.448 45.484 117.776 46.8202 114.493 48.4999C111.286 50.1033 107.43 52.3938 102.926 55.3714C102.009 55.9822 101.208 56.5167 100.521 56.9748C99.8335 57.4329 99.4899 57.7001 99.4899 57.7765C99.4899 57.7765 99.948 57.662 100.864 57.4329C101.78 57.1275 102.926 56.7457 104.3 56.2876C105.674 55.8295 107.201 55.3333 108.881 54.7988C110.561 54.188 112.126 53.6535 113.577 53.1954C115.027 52.661 116.287 52.2411 117.356 51.9357C118.425 51.5539 119.074 51.363 119.303 51.363C119.914 51.2867 120.524 51.5539 121.135 52.1647C121.822 52.7755 122.395 53.5008 122.853 54.3407C123.311 55.1806 123.617 56.0204 123.769 56.8603C123.922 57.6238 123.846 58.1582 123.54 58.4636C123.464 58.54 122.7 58.8454 121.25 59.3798C119.875 59.8379 118.081 60.4487 115.867 61.2122C113.729 61.8994 111.324 62.6629 108.652 63.5028C106.056 64.3426 103.536 65.1443 101.093 65.9078C98.6501 66.595 96.4359 67.1676 94.4508 67.6257C92.542 68.0838 91.1295 68.3128 90.2133 68.3128H89.6407C88.8772 68.1601 88.1519 67.7784 87.4647 67.1676C86.7012 66.4804 86.0522 65.7169 85.5178 64.8771C84.9833 64.0372 84.6397 63.1974 84.487 62.3575C84.258 61.4413 84.3343 60.6396 84.7161 59.9525C85.1742 59.0363 86.2431 57.8147 87.9228 56.2876C89.5262 54.7606 91.5113 53.1573 93.8782 51.4776C96.245 49.7215 98.8409 47.9654 101.666 46.2094C104.567 44.377 107.469 42.6973 110.37 41.1702L113.004 39.6814C110.713 39.6051 108.805 39.5669 107.278 39.5669C105.827 39.4905 104.567 39.4524 103.498 39.4524C102.429 39.376 101.513 39.2615 100.75 39.1088C99.9862 38.8797 99.1845 38.5743 98.3447 38.1926C96.6649 37.3527 95.2906 35.9784 94.2217 34.0696C93.1528 32.1609 92.7711 30.3285 93.0765 28.5724C93.3055 26.969 94.2217 25.213 95.8251 23.3042C97.5048 21.3191 99.5281 19.334 101.895 17.3489C104.338 15.2874 107.01 13.3023 109.912 11.3935C112.889 9.40843 115.829 7.69054 118.73 6.23989C121.708 4.71288 124.457 3.49127 126.976 2.57506C129.572 1.65886 131.71 1.20076 133.39 1.20076C135.146 1.20076 136.52 1.73521 137.512 2.80412C138.505 3.87302 139.269 5.17098 139.803 6.69799C140.185 7.7669 140.299 8.64493 140.147 9.33208C139.994 10.0192 139.574 10.7446 138.887 11.5081C137.971 12.5006 136.634 13.5695 134.878 14.7148C133.122 15.7837 131.328 16.8526 129.496 17.9215C127.663 18.9141 125.945 19.8685 124.342 20.7847C122.815 21.6245 121.784 22.3498 121.25 22.9606C120.868 23.3424 120.486 23.5333 120.105 23.5333C119.188 23.5333 118.348 22.8461 117.585 21.4718C116.821 20.0975 116.249 18.7995 115.867 17.5779C110.141 21.3955 105.903 24.6404 103.155 27.3126C100.482 29.9849 99.2227 31.3974 99.3754 31.5501C99.5281 31.7028 100.139 31.8173 101.208 31.8937C102.353 31.8937 103.88 31.8937 105.789 31.8937H110.141C111.668 31.8173 113.004 31.7791 114.149 31.7791C115.294 31.7791 116.325 31.7791 117.241 31.7791C119.608 31.7791 121.288 31.8555 122.281 32.0082C123.273 32.0845 124.075 32.3136 124.686 32.6953Z" fill="#FF6108"/>
</svg>
