<svg width="201" height="80" viewBox="0 0 201 80" fill="none" xmlns="http://www.w3.org/2000/svg">
<path d="M62.1457 33.2173C63.4785 32.9311 65.1392 32.4946 67.1278 31.9077C69.1215 31.2692 71.0144 30.5946 72.8065 29.884C71.4268 26.4083 70.9507 22.4998 71.3784 18.1585C71.694 14.9542 72.5658 12.196 73.9938 9.88404C75.4268 7.52038 77.2716 5.74519 79.528 4.55849C81.7895 3.3201 84.264 2.83327 86.9515 3.098C89.2255 3.32199 91.1877 4.0632 92.838 5.32162C94.4934 6.52836 95.7204 8.11038 96.5191 10.0677C97.3178 12.025 97.5975 14.2181 97.3583 16.6472C96.5406 22.8288 91.5698 28.262 82.4458 32.9469C84.0088 34.562 86.3149 35.5198 89.3642 35.8201C90.863 35.9678 92.3821 35.9087 93.9216 35.6428C95.4612 35.377 96.9643 34.9511 98.431 34.365C99.1502 35.0098 99.6347 35.9186 99.8845 37.0912C100.191 38.2173 100.293 39.2971 100.192 40.3308C98.3893 41.1448 96.5041 41.7418 94.5358 42.122C92.5676 42.5021 90.524 42.5878 88.405 42.3791L88.3275 42.3715C85.64 42.1067 83.1792 41.3947 80.9451 40.2353C78.7678 39.0294 77.0655 37.5049 75.838 35.6619C73.8291 36.4555 71.6934 37.2106 69.4311 37.927C67.2256 38.5969 65.3505 39.0906 63.8059 39.4081C63.0503 38.6031 62.5399 37.6918 62.2749 36.6742C61.9581 35.6515 61.9151 34.4992 62.1457 33.2173ZM78.184 18.2027C77.8226 21.8721 78.1166 24.9799 79.066 27.5261C82.8662 25.5 85.6591 23.6355 87.4445 21.9328C89.235 20.1783 90.2914 18.195 90.6137 15.9829C90.797 14.1223 90.4744 12.6294 89.6459 11.5041C88.8742 10.3322 87.6873 9.66737 86.0851 9.50955C84.0695 9.31101 82.3007 10.05 80.7788 11.7265C79.3086 13.4081 78.4436 15.5669 78.184 18.2027Z" fill="#FF6108"/>
<path d="M123.486 18.1105C115.686 25.8833 108.23 30.1731 97.7386 34.6663L100.185 40.4339C112.764 35.1415 120.319 29.8566 128.069 22.5814L123.486 18.1105Z" fill="#FF6108"/>
<path d="M62.2136 33.1767L64.1133 39.3929C56.4534 40.648 51.4775 40.1579 45.4499 35.0424L48.9256 30.3606C52.5633 34.2358 57.0416 34.6769 62.2136 33.1767Z" fill="#FF6108"/>
<path d="M22.7779 2.51398C30.0075 2.51398 35.1165 6.27339 35.1165 6.27339L31.4535 13.503C31.4535 13.503 27.5013 10.7558 23.4045 10.7558C20.3198 10.7558 18.6811 12.1535 18.6811 14.3224C18.6811 16.5395 22.4405 18.13 26.9711 20.0579C31.4053 21.9376 36.2732 25.697 36.2732 30.9024C36.2732 40.3973 29.0436 43.723 21.2838 43.723C11.9816 43.723 6.3425 38.4694 6.3425 38.4694L10.8731 30.8542C10.8731 30.8542 16.1748 35.3366 20.609 35.3366C22.5851 35.3366 26.3445 35.1438 26.3445 31.4326C26.3445 28.5407 22.1031 27.2394 17.3798 24.8777C12.6082 22.516 9.81273 18.8048 9.81273 14.6598C9.81273 7.23735 16.3676 2.51398 22.7779 2.51398ZM76.705 43L64.2219 43L49.5698 26.1308L49.5698 43L40.5086 43L40.5086 3.23694L49.5698 3.23694L49.5698 19.4795L63.2097 3.23694L74.1988 3.23694L58.1971 22.0822L76.705 43ZM99.9909 11.1896L99.9909 3.23694L127.946 3.23694L127.946 11.1896L118.499 11.1896L118.499 43L109.438 43L109.438 11.1896L99.9909 11.1896ZM150.814 34.8064C155.441 34.8064 158.622 32.3483 158.622 32.3483L162.478 40.0599C162.478 40.0599 158.044 43.723 149.416 43.723C138.186 43.723 127.872 34.5654 127.872 23.1908C127.872 11.7679 138.138 2.51398 149.416 2.51398C158.044 2.51398 162.478 6.177 162.478 6.177L158.622 13.8886C158.622 13.8886 155.441 11.4305 150.814 11.4305C141.705 11.4305 137.704 17.7926 137.704 23.0944C137.704 28.4443 141.705 34.8064 150.814 34.8064ZM175.006 27.0466L175.006 43L165.945 43L165.945 3.23694L175.006 3.23694L175.006 19.094L187.827 19.094L187.827 3.23694L196.888 3.23694L196.888 43L187.827 43L187.827 27.0466L175.006 27.0466Z" fill="#373737"/>
</svg>
