<svg width="303" height="83" viewBox="0 0 303 83" fill="none" xmlns="http://www.w3.org/2000/svg">
<path d="M40.9237 23.1659C48.7922 23.1659 54.3526 27.2575 54.3526 27.2575L50.3659 35.126C50.3659 35.126 46.0644 32.136 41.6056 32.136C38.2484 32.136 36.4648 33.6572 36.4648 36.0178C36.4648 38.4308 40.5565 40.1619 45.4874 42.2602C50.3134 44.306 55.6116 48.3976 55.6116 54.063C55.6116 64.3969 47.7431 68.0165 39.2975 68.0165C29.1733 68.0165 23.0359 62.2987 23.0359 62.2987L27.9668 54.0105C27.9668 54.0105 33.7371 58.889 38.5631 58.889C40.7138 58.889 44.8055 58.6792 44.8055 54.64C44.8055 51.4926 40.1893 50.0762 35.0485 47.5058C29.8553 44.9355 26.8128 40.8963 26.8128 36.385C26.8128 28.3067 33.9469 23.1659 40.9237 23.1659ZM107.485 67.2296H93.8985L77.9516 48.8697V67.2296H68.0897V23.9527H77.9516V41.6307L92.7969 23.9527H104.757L87.3414 44.4634L107.485 67.2296ZM156.434 32.6081V23.9527H186.859V32.6081H176.577V67.2296H166.716V32.6081H156.434ZM219.617 58.312C224.653 58.312 228.115 55.6367 228.115 55.6367L232.312 64.0297C232.312 64.0297 227.486 68.0165 218.096 68.0165C205.873 68.0165 194.648 58.0497 194.648 45.6699C194.648 33.2376 205.821 23.1659 218.096 23.1659C227.486 23.1659 232.312 27.1526 232.312 27.1526L228.115 35.5457C228.115 35.5457 224.653 32.8704 219.617 32.8704C209.703 32.8704 205.349 39.7947 205.349 45.5649C205.349 51.3877 209.703 58.312 219.617 58.312ZM253.815 49.8664V67.2296H243.953V23.9527H253.815V41.211H267.769V23.9527H277.631V67.2296H267.769V49.8664H253.815Z" fill="#373737"/>
<path d="M40.9237 23.1659C48.7922 23.1659 54.3526 27.2575 54.3526 27.2575L50.3659 35.126C50.3659 35.126 46.0644 32.136 41.6056 32.136C38.2484 32.136 36.4648 33.6572 36.4648 36.0178C36.4648 38.4308 40.5565 40.1619 45.4874 42.2602C50.3134 44.306 55.6116 48.3976 55.6116 54.063C55.6116 64.3969 47.7431 68.0165 39.2975 68.0165C29.1733 68.0165 23.0359 62.2987 23.0359 62.2987L27.9668 54.0105C27.9668 54.0105 33.7371 58.889 38.5631 58.889C40.7138 58.889 44.8055 58.6792 44.8055 54.64C44.8055 51.4926 40.1893 50.0762 35.0485 47.5058C29.8553 44.9355 26.8128 40.8963 26.8128 36.385C26.8128 28.3067 33.9469 23.1659 40.9237 23.1659ZM107.485 67.2296H93.8985L77.9516 48.8697V67.2296H68.0897V23.9527H77.9516V41.6307L92.7969 23.9527H104.757L87.3414 44.4634L107.485 67.2296ZM156.434 32.6081V23.9527H186.859V32.6081H176.577V67.2296H166.716V32.6081H156.434ZM219.617 58.312C224.653 58.312 228.115 55.6367 228.115 55.6367L232.312 64.0297C232.312 64.0297 227.486 68.0165 218.096 68.0165C205.873 68.0165 194.648 58.0497 194.648 45.6699C194.648 33.2376 205.821 23.1659 218.096 23.1659C227.486 23.1659 232.312 27.1526 232.312 27.1526L228.115 35.5457C228.115 35.5457 224.653 32.8704 219.617 32.8704C209.703 32.8704 205.349 39.7947 205.349 45.5649C205.349 51.3877 209.703 58.312 219.617 58.312ZM253.815 49.8664V67.2296H243.953V23.9527H253.815V41.211H267.769V23.9527H277.631V67.2296H267.769V49.8664H253.815Z" fill="black" fill-opacity="0.2"/>
<path d="M151.902 38.7706C153.019 39.3287 153.995 40.3519 154.832 41.8402C155.763 43.2354 156.274 44.6772 156.367 46.1655C156.46 47.6537 155.902 48.8629 154.693 49.7931C153.577 50.7233 151.763 51.8395 149.252 53.1417C146.74 54.3509 143.484 55.9787 139.485 58.0251C135.578 59.9784 130.881 62.7689 125.393 66.3966C124.277 67.1407 123.3 67.7918 122.463 68.3499C121.626 68.908 121.207 69.2336 121.207 69.3266C121.207 69.3266 121.765 69.187 122.881 68.908C123.998 68.5359 125.393 68.0708 127.067 67.5127C128.741 66.9547 130.602 66.35 132.648 65.6989C134.694 64.9548 136.601 64.3037 138.369 63.7456C140.136 63.0945 141.671 62.5829 142.973 62.2108C144.275 61.7457 145.066 61.5132 145.345 61.5132C146.089 61.4202 146.833 61.7457 147.577 62.4899C148.414 63.234 149.112 64.1176 149.67 65.1408C150.228 66.164 150.6 67.1872 150.786 68.2104C150.972 69.1405 150.879 69.7917 150.507 70.1637C150.414 70.2567 149.484 70.6288 147.717 71.2799C146.042 71.838 143.857 72.5822 141.159 73.5123C138.555 74.3495 135.625 75.2796 132.369 76.3028C129.206 77.326 126.137 78.3027 123.16 79.2328C120.184 80.07 117.486 80.7676 115.068 81.3257C112.743 81.8838 111.022 82.1629 109.906 82.1629H109.208C108.278 81.9768 107.394 81.5117 106.557 80.7676C105.627 79.9305 104.836 79.0003 104.185 77.9771C103.534 76.9539 103.115 75.9307 102.929 74.9076C102.65 73.7914 102.743 72.8147 103.208 71.9775C103.766 70.8613 105.069 69.3731 107.115 67.5127C109.068 65.6524 111.487 63.6991 114.37 61.6527C117.254 59.5133 120.416 57.3739 123.858 55.2346C127.393 53.0022 130.927 50.9558 134.462 49.0955L137.671 47.2817C134.88 47.1886 132.555 47.1421 130.695 47.1421C128.927 47.0491 127.393 47.0026 126.09 47.0026C124.788 46.9096 123.672 46.7701 122.742 46.584C121.812 46.305 120.835 45.9329 119.812 45.4678C117.765 44.4447 116.091 42.7704 114.789 40.4449C113.487 38.1195 113.022 35.8871 113.394 33.7478C113.673 31.7944 114.789 29.655 116.742 27.3296C118.789 24.9112 121.254 22.4928 124.137 20.0743C127.114 17.5629 130.369 15.1445 133.904 12.819C137.531 10.4006 141.113 8.30774 144.647 6.54042C148.275 4.6801 151.623 3.19183 154.693 2.07563C157.856 0.959435 160.46 0.401338 162.506 0.401338C164.646 0.401338 166.32 1.05245 167.529 2.35468C168.738 3.65692 169.669 5.2382 170.32 7.09852C170.785 8.40075 170.924 9.47044 170.738 10.3076C170.552 11.1447 170.041 12.0284 169.204 12.9586C168.087 14.1678 166.46 15.47 164.32 16.8653C162.181 18.1675 159.995 19.4697 157.763 20.772C155.53 21.9812 153.437 23.1439 151.484 24.2601C149.624 25.2833 148.368 26.1669 147.717 26.911C147.252 27.3761 146.787 27.6087 146.321 27.6087C145.205 27.6087 144.182 26.7715 143.252 25.0972C142.322 23.4229 141.624 21.8416 141.159 20.3534C134.183 25.0042 129.02 28.9574 125.672 32.213C122.416 35.4686 120.881 37.1894 121.067 37.3754C121.254 37.5614 121.998 37.701 123.3 37.794C124.695 37.794 126.555 37.794 128.881 37.794H134.183C136.043 37.701 137.671 37.6544 139.066 37.6544C140.461 37.6544 141.717 37.6544 142.833 37.6544C145.717 37.6544 147.763 37.7475 148.972 37.9335C150.182 38.0265 151.158 38.3056 151.902 38.7706Z" fill="#FF6108"/>
</svg>
