<svg width="113" height="32" viewBox="0 0 113 32" fill="none" xmlns="http://www.w3.org/2000/svg">
<path d="M7.28832 31.5738C6.07695 31.5738 4.8337 31.3719 3.55858 30.9681C2.28345 30.5431 1.26335 29.948 0.498273 29.1829L1.7734 24.3375C2.38971 25.2301 3.21854 25.9951 4.2599 26.6327C5.3225 27.249 6.41698 27.5572 7.54335 27.5572C8.39343 27.5572 9.00974 27.3871 9.39228 27.0471C9.79607 26.6858 9.99796 26.2502 9.99796 25.7401C9.99796 25.1663 9.79607 24.7519 9.39228 24.4969C8.98849 24.2206 8.5847 24.0081 8.18091 23.8593L5.53502 22.8711C4.98247 22.6373 4.33428 22.3291 3.59045 21.9466C2.84663 21.5428 2.19844 20.9796 1.64589 20.2571C1.11458 19.5132 0.848933 18.5463 0.848933 17.3561C0.848933 16.2723 1.11458 15.2734 1.64589 14.3596C2.17719 13.4458 2.94227 12.7126 3.94111 12.16C4.96122 11.5862 6.18321 11.2993 7.6071 11.2993C8.88223 11.2993 10.0936 11.5224 11.2412 11.9687C12.4101 12.3938 13.292 12.9251 13.8871 13.5626L12.7076 18.2806C12.0275 17.3455 11.2093 16.623 10.253 16.1129C9.29664 15.5816 8.37218 15.3159 7.47959 15.3159C6.73577 15.3159 6.18321 15.486 5.82193 15.826C5.46064 16.1448 5.28 16.5273 5.28 16.9736C5.28 17.3136 5.40751 17.6324 5.66253 17.93C5.91756 18.2275 6.33198 18.4825 6.90578 18.695L9.39228 19.6514C10.0511 19.8851 10.7737 20.2146 11.56 20.6396C12.3463 21.0434 13.0158 21.6172 13.5683 22.361C14.1421 23.1048 14.429 24.1249 14.429 25.4213C14.429 27.249 13.7596 28.7367 12.4207 29.8843C11.1031 31.0106 9.39228 31.5738 7.28832 31.5738ZM29.8176 31L21.9118 20.4802L28.415 11.8731H33.8661L27.4905 20.0658L35.7788 31H29.8176ZM17.162 31V0.396969H22.1669V31H17.162ZM77.5619 31.5738C75.6705 31.5738 73.9384 31.1169 72.3658 30.203C70.8144 29.2892 69.5818 28.0672 68.6679 26.5371C67.7541 24.9857 67.2972 23.2855 67.2972 21.4366C67.2972 19.5664 67.7541 17.8662 68.6679 16.336C69.5818 14.8059 70.8144 13.5839 72.3658 12.6701C73.9384 11.7562 75.6705 11.2993 77.5619 11.2993C78.9008 11.2993 80.1653 11.5224 81.3554 11.9687C82.5455 12.415 83.5975 13.0632 84.5114 13.9133L83.1725 19.2051C82.6412 18.2912 81.908 17.5049 80.9729 16.8461C80.0378 16.166 78.9539 15.826 77.7213 15.826C76.6587 15.826 75.7024 16.081 74.8523 16.5911C74.0234 17.1011 73.3646 17.7812 72.8758 18.6313C72.387 19.4601 72.1426 20.3952 72.1426 21.4366C72.1426 22.4567 72.387 23.3917 72.8758 24.2418C73.3646 25.0919 74.0234 25.772 74.8523 26.282C75.7024 26.7921 76.6587 27.0471 77.7213 27.0471C78.9539 27.0471 80.0378 26.7177 80.9729 26.0589C81.908 25.3788 82.6412 24.5819 83.1725 23.668L84.5114 28.9598C83.5975 29.8099 82.5455 30.4581 81.3554 30.9044C80.1653 31.3507 78.9008 31.5738 77.5619 31.5738ZM86.338 31V0.396969H91.3429V13.6264C92.0229 12.8613 92.8305 12.2875 93.7656 11.905C94.7007 11.5012 95.6889 11.2993 96.7303 11.2993C98.0904 11.2993 99.3549 11.6287 100.524 12.2875C101.714 12.9463 102.67 13.9027 103.393 15.1566C104.115 16.3892 104.477 17.8981 104.477 19.6833V31H99.4718V20.3527C99.4718 19.1626 99.1211 18.1106 98.4198 17.1968C97.7185 16.2829 96.7196 15.826 95.4233 15.826C94.3606 15.826 93.4149 16.1979 92.5861 16.9417C91.7573 17.6643 91.3429 18.7694 91.3429 20.2571V31H86.338Z" fill="black"/>
<path d="M45.2452 31.5738C43.1413 31.5738 41.2711 31.1275 39.6347 30.2349C38.0195 29.3423 36.755 28.1203 35.8412 26.5689C34.9486 24.9963 34.5023 23.2217 34.5023 21.2453C34.5023 19.3538 34.938 17.6643 35.8093 16.1767C36.7019 14.6678 37.9026 13.4776 39.4115 12.6063C40.9204 11.735 42.5887 11.2993 44.4164 11.2993C46.2866 11.2993 47.9549 11.735 49.4213 12.6063C50.9089 13.4564 52.0884 14.6146 52.9598 16.081C53.8311 17.5474 54.2668 19.2157 54.2668 21.0859V22.9029H42.3762C41.8449 22.9029 41.3242 22.8711 40.8142 22.8073C40.3041 22.7436 39.7941 22.6692 39.284 22.5842C39.5391 23.9656 40.2085 25.1025 41.2923 25.9951C42.3762 26.8877 43.7363 27.334 45.3728 27.334C46.5841 27.334 47.6786 27.079 48.6562 26.5689C49.6338 26.0589 50.4414 25.4213 51.0789 24.6562L52.2266 29.3423C51.2702 30.0862 50.197 30.6387 49.0069 31C47.8167 31.3825 46.5629 31.5738 45.2452 31.5738ZM39.1565 19.492C40.2404 19.2795 41.3136 19.1732 42.3762 19.1732H46.4885C47.0623 19.1732 47.6042 19.1945 48.1143 19.237C48.6243 19.2795 49.1131 19.3432 49.5807 19.4282C49.2619 18.1956 48.635 17.2074 47.6999 16.4636C46.786 15.7197 45.6809 15.3478 44.3845 15.3478C43.1094 15.3478 42.0043 15.7304 41.0692 16.4954C40.1341 17.2605 39.4965 18.2594 39.1565 19.492ZM58.554 31V15.8898H54.7924V11.8731H58.6496V5.49747H63.4632V11.8731H67.4799V15.8898H63.5588V31H58.554Z" fill="url(#paint0_linear_71_8)"/>
<path d="M109.715 31.5738C108.801 31.5738 108.036 31.2657 107.42 30.6493C106.825 30.033 106.527 29.268 106.527 28.3541C106.527 27.4615 106.836 26.7071 107.452 26.0908C108.068 25.4745 108.823 25.1663 109.715 25.1663C110.65 25.1663 111.415 25.4745 112.01 26.0908C112.627 26.7071 112.935 27.4722 112.935 28.386C112.935 29.2786 112.627 30.033 112.01 30.6493C111.415 31.2657 110.65 31.5738 109.715 31.5738Z" fill="#FF6108"/>
<defs>
<linearGradient id="paint0_linear_71_8" x1="116" y1="8.49999" x2="-1" y2="8.49999" gradientUnits="userSpaceOnUse">
<stop offset="0.597536" stop-color="#343333"/>
<stop offset="1" stop-color="#B0B0B0"/>
</linearGradient>
</defs>
</svg>
